<?xml version="1.0" encoding="UTF-8" standalone="no"?>
<svg width="30px" height="30px" viewBox="0 0 30 30" version="1.1" xmlns="http://www.w3.org/2000/svg" xmlns:xlink="http://www.w3.org/1999/xlink" xmlns:sketch="http://www.bohemiancoding.com/sketch/ns">
    <!-- Generator: Sketch 3.3.2 (12043) - http://www.bohemiancoding.com/sketch -->
    <title>Alertasicon</title>
    <desc>Created with Sketch.</desc>
    <defs></defs>
    <g id="Landing-PetBio-150714" stroke="none" stroke-width="1" fill="none" fill-rule="evenodd" sketch:type="MSPage">
        <g id="Desktop-HD" sketch:type="MSArtboardGroup" transform="translate(-669.000000, -1211.000000)" fill="#D35B52">
            <g id="Block02" sketch:type="MSLayerGroup" transform="translate(0.000000, 840.000000)">
                <g id="textBlock" transform="translate(638.000000, 217.000000)" sketch:type="MSShapeGroup">
                    <g id="No-olvidarás-ni-una--+-Recibe-alertas-y-avi-+-Alertas" transform="translate(31.000000, 154.000000)">
                        <g id="Alertasicon" transform="translate(0.000000, 0.179612)">
                            <path d="M26.6829707,1.65160596 C24.5737004,0.0109816417 22.1839783,-0.626177627 20.1904795,1.39412795 C19.9217905,1.66437347 19.7007722,1.94100273 19.5190666,2.22097586 C22.9569234,3.36913929 25.818399,5.74997488 27.5559003,8.82511952 C27.8707122,8.54849026 28.1654033,8.20771949 28.4325445,7.79581547 C29.9734819,5.4250115 28.7875978,3.28888641 26.6829707,1.65160596" id="Fill-64"></path>
                            <path d="M10.2109131,2.22735961 C10.1830537,2.18236936 10.156742,2.13707512 10.1273348,2.09208486 C8.39602441,-0.571459751 5.52990558,-0.317325615 3.04360399,1.61603934 C0.557302401,3.54606043 -0.356797275,6.2260204 1.88403156,8.49711625 C1.99020704,8.60320813 2.09700162,8.69987638 2.20503439,8.79289677 C3.940988,5.73720738 6.79101025,3.36913929 10.2109131,2.22735961" id="Fill-65"></path>
                            <path d="M25.8917622,9.67446255 C24.3771365,7.01730169 21.8988832,4.96173348 18.9228743,3.96769206 C17.6500067,3.54302055 16.2876794,3.31168552 14.8708713,3.31168552 C13.452206,3.31168552 12.0895691,3.54302055 10.8151538,3.97103593 C7.8456454,4.96173348 5.37110669,7.01091794 3.85771918,9.66169505 C2.83558673,11.4503616 2.25084772,13.5120096 2.25084772,15.7061964 C2.25084772,18.9327272 3.51350013,21.8762449 5.57912395,24.0828953 L4.44895873,25.5915887 L3.65929795,26.6467318 C3.13213515,27.3480326 3.28598125,28.3356902 4.00196925,28.8503422 C4.28830254,29.0597901 4.6207587,29.1591943 4.95197667,29.1591943 C5.44446992,29.1591943 5.93262948,28.9375869 6.24744133,28.5156512 L6.92690248,27.6085504 L8.03911384,26.1226561 C10.0112537,27.3738716 12.354853,28.1010113 14.8708713,28.1010113 C17.3865801,28.1010113 19.7320367,27.3738716 21.7023193,26.1226561 L22.8145306,27.6085504 L23.4958491,28.5156512 C23.8100418,28.9375869 24.2966536,29.1591943 24.7913137,29.1591943 C25.1219126,29.1591943 25.4546783,29.0597901 25.7413211,28.8503422 C26.4569996,28.3356902 26.6111552,27.3480326 26.0836829,26.6467318 L25.2924744,25.5915887 L24.1641664,24.0828953 C26.2291712,21.8762449 27.4924427,18.9327272 27.4924427,15.7061964 C27.4924427,13.5186973 26.9092514,11.4597853 25.8917622,9.67446255 L25.8917622,9.67446255 Z M16.0892582,16.4558313 L16.0877104,16.4558313 L12.4105719,21.2390857 C12.1059752,21.6351823 11.5326895,21.7120913 11.1299656,21.4129669 C10.7693404,21.1460653 10.6681178,20.6666759 10.8674676,20.2869946 L13.4701598,15.3104038 L13.9518189,9.88360644 C13.9945367,9.38506579 14.4430739,9.01176828 14.9525924,9.05675853 C15.4048442,9.09536503 15.7552542,9.4492073 15.7927097,9.88360644 L16.3087288,15.7061964 C16.3331832,15.9858656 16.2480571,16.2500313 16.0892582,16.4558313 L16.0892582,16.4558313 Z" id="Fill-66"></path>
                        </g>
                    </g>
                </g>
            </g>
        </g>
    </g>
</svg>