<?xml version="1.0" encoding="UTF-8" standalone="no"?>
<svg width="51px" height="53px" viewBox="0 0 51 53" version="1.1" xmlns="http://www.w3.org/2000/svg" xmlns:xlink="http://www.w3.org/1999/xlink" xmlns:sketch="http://www.bohemiancoding.com/sketch/ns">
    <!-- Generator: Sketch 3.3.2 (12043) - http://www.bohemiancoding.com/sketch -->
    <title>BuyTag</title>
    <desc>Created with Sketch.</desc>
    <defs></defs>
    <g id="Landing-PetBio-150714" stroke="none" stroke-width="1" fill="none" fill-rule="evenodd" sketch:type="MSPage">
        <g id="Desktop-HD" sketch:type="MSArtboardGroup" transform="translate(-445.000000, -2592.000000)" fill="#78B964">
            <g id="Block04" sketch:type="MSLayerGroup" transform="translate(301.000000, 2590.000000)">
                <g id="CompraTuPlaca" transform="translate(0.000000, 2.000000)" sketch:type="MSShapeGroup">
                    <path d="M145.439275,38.5441492 L168.851329,51.7991492 C168.859305,51.8031492 168.868278,51.8061492 168.877251,51.8111492 C168.904169,51.8241492 168.930091,51.8371492 168.957009,51.8491492 C168.986918,51.8641492 169.015831,51.8801492 169.044743,51.8921492 C169.086616,51.9101492 169.128489,51.9221492 169.17136,51.9351492 C169.200272,51.9451492 169.230181,51.9561492 169.258097,51.9641492 C169.305952,51.9771492 169.353807,51.9841492 169.402659,51.9931492 C169.427583,51.9971492 169.451511,52.0041492 169.477432,52.0071492 C169.551208,52.0171492 169.624985,52.0221492 169.698761,52.0221492 C169.773535,52.0221492 169.847311,52.0171492 169.921088,52.0071492 C169.946012,52.0041492 169.96994,51.9981492 169.99287,51.9931492 C170.041722,51.9851492 170.092568,51.9771492 170.140423,51.9641492 C170.168338,51.9561492 170.195257,51.9451492 170.225166,51.9361492 C170.268036,51.9231492 170.310906,51.9101492 170.353776,51.8921492 C170.382689,51.8801492 170.410604,51.8641492 170.439517,51.8501492 C170.466435,51.8381492 170.493353,51.8251492 170.521269,51.8111492 C170.529245,51.8071492 170.538218,51.8031492 170.54719,51.7991492 L193.959245,38.5441492 C194.500604,38.2371492 194.836586,37.6611492 194.836586,37.0371492 L194.836586,10.2411492 C194.836586,10.2321492 194.834592,10.2241492 194.834592,10.2151492 C194.833595,10.1581492 194.829607,10.1021492 194.824622,10.0461492 C194.823625,10.0341492 194.822628,10.0221492 194.820634,10.0091492 C194.811662,9.94314925 194.798701,9.87714925 194.782749,9.81314925 C194.778761,9.79914925 194.773776,9.78514925 194.769789,9.77014925 C194.755831,9.72214925 194.739879,9.67314925 194.721934,9.62514925 C194.713958,9.60514925 194.705982,9.58514925 194.698006,9.56414925 C194.678066,9.52014925 194.658127,9.47814925 194.635196,9.43514925 C194.627221,9.41914925 194.619245,9.40214925 194.610272,9.38614925 C194.578369,9.33014925 194.542477,9.27414925 194.504592,9.22114925 C194.499607,9.21414925 194.493625,9.20814925 194.489637,9.20214925 C194.454743,9.15514925 194.416858,9.11014925 194.375982,9.06714925 C194.365015,9.05414925 194.353051,9.04114925 194.340091,9.02814925 C194.303202,8.99114925 194.265317,8.95514925 194.224441,8.92114925 C194.212477,8.91114925 194.200514,8.90014925 194.18855,8.89014925 C194.134713,8.84814925 194.080876,8.80714925 194.022054,8.77114925 C193.963233,8.73514925 193.903414,8.70314925 193.842598,8.67514925 C193.823656,8.66614925 193.804713,8.65914925 193.786767,8.65014925 C193.757855,8.63914925 193.732931,8.62614925 193.705015,8.61614925 L170.594048,0.106149248 C170.195257,-0.040850752 169.756586,-0.034850752 169.361782,0.122149248 L145.649637,9.57914925 C145.627704,9.58814925 145.60577,9.60014925 145.583837,9.61014925 C145.5629,9.61814925 145.541964,9.62814925 145.522024,9.63814925 C145.470181,9.66414925 145.419335,9.69214925 145.369486,9.72314925 C145.363505,9.72714925 145.357523,9.72914925 145.352538,9.73214925 C145.352538,9.73314925 145.351541,9.73414925 145.349547,9.73514925 C145.291722,9.77214925 145.236888,9.81314925 145.185045,9.85714925 C145.176073,9.86514925 145.1671,9.87314925 145.158127,9.88114925 C145.116254,9.91714925 145.077372,9.95414925 145.040483,9.99314925 C145.027523,10.0071492 145.015559,10.0201492 145.003595,10.0341492 C144.969698,10.0721492 144.937795,10.1111492 144.907885,10.1511492 C144.896918,10.1641492 144.887946,10.1771492 144.877976,10.1911492 C144.840091,10.2441492 144.805196,10.3001492 144.77429,10.3561492 C144.771299,10.3621492 144.768308,10.3691492 144.766314,10.3751492 C144.737402,10.4261492 144.714471,10.4781492 144.691541,10.5321492 C144.684562,10.5511492 144.677583,10.5711492 144.670604,10.5901492 C144.653656,10.6341492 144.640695,10.6771492 144.627734,10.7221492 C144.621752,10.7411492 144.61577,10.7611492 144.611782,10.7811492 C144.598822,10.8371492 144.586858,10.8931492 144.578882,10.9511492 C144.577885,10.9591492 144.576888,10.9661492 144.575891,10.9721492 C144.566918,11.0391492 144.561934,11.1071492 144.561934,11.1761492 L144.561934,11.1871492 L144.561934,37.0371492 C144.561934,37.6611492 144.896918,38.2371492 145.439275,38.5441492 L145.439275,38.5441492 Z M151.549758,22.6061492 C151.397221,22.5261492 151.257644,22.3511492 151.184864,22.1521492 C151.113082,21.9521492 151.121057,21.7611492 151.204804,21.6531492 L153.793958,18.3281492 C153.871722,18.2301492 154.002326,18.2131492 154.1429,18.2871492 C154.282477,18.3591492 154.413082,18.5101492 154.491843,18.6871492 L157.136828,24.7781492 C157.223565,24.9761492 157.231541,25.1791492 157.156767,25.3041492 C157.083988,25.4281492 156.94142,25.4531492 156.784894,25.3721492 L155.203686,24.5361492 L155.203686,32.9891492 L153.108036,31.8471492 L153.108036,23.4281492 L151.549758,22.6061492 L151.549758,22.6061492 Z M151.389245,32.5021492 L163.942205,39.3731492 C164.18148,39.5041492 164.376888,39.8381492 164.376888,40.1201492 L164.376888,41.8981492 C164.376888,42.1791492 164.18148,42.2981492 163.942205,42.1661492 L151.389245,35.2301492 C151.160937,35.1041492 150.975498,34.7791492 150.975498,34.5051492 L150.975498,32.7711492 C150.975498,32.4971492 151.160937,32.3771492 151.389245,32.5021492 L151.389245,32.5021492 Z M158.4,26.2251492 C158.244471,26.1431492 158.101903,25.9661492 158.026133,25.7631492 C157.953353,25.5611492 157.960332,25.3681492 158.047069,25.2591492 L160.705015,21.9081492 C160.783776,21.8081492 160.918369,21.7931492 161.060937,21.8681492 L161.062931,21.8681492 C161.206495,21.9421492 161.340091,22.0961492 161.418852,22.2761492 L164.134622,28.4651492 C164.223353,28.6671492 164.231329,28.8721492 164.157553,28.9981492 C164.081782,29.1241492 163.933233,29.1491492 163.773716,29.0641492 L162.152628,28.2071492 L162.152628,36.7711492 L159.999154,35.6001492 L159.999154,27.0711492 L158.4,26.2251492 L158.4,26.2251492 Z M191.385045,36.0261492 L171.424532,47.3271492 L171.424532,22.9141492 L179.119215,19.1031492 L179.119215,28.3201492 L183.647492,26.0501492 L183.647492,16.8591492 L191.385045,13.0261492 L191.385045,36.0261492 L191.385045,36.0261492 Z M170.023776,3.58314925 L188.741057,10.4751492 L181.668489,13.9791492 L163.53145,6.17214925 L170.023776,3.58314925 L170.023776,3.58314925 Z M158.6971,8.10014925 L176.99864,16.2921492 L169.667855,19.9241492 L150.69435,11.2921492 L158.6971,8.10014925 L158.6971,8.10014925 Z" id="BuyTag"></path>
                </g>
            </g>
        </g>
    </g>
</svg>