<?xml version="1.0" encoding="UTF-8" standalone="no"?>
<svg width="34px" height="30px" viewBox="0 0 34 30" version="1.1" xmlns="http://www.w3.org/2000/svg" xmlns:xlink="http://www.w3.org/1999/xlink" xmlns:sketch="http://www.bohemiancoding.com/sketch/ns">
    <!-- Generator: Sketch 3.3.2 (12043) - http://www.bohemiancoding.com/sketch -->
    <title>iDicon</title>
    <desc>Created with Sketch.</desc>
    <defs></defs>
    <g id="Landing-PetBio-150714" stroke="none" stroke-width="1" fill="none" fill-rule="evenodd" sketch:type="MSPage">
        <g id="Desktop-HD" sketch:type="MSArtboardGroup" transform="translate(-671.000000, -2142.000000)">
            <g id="Block03" sketch:type="MSLayerGroup" transform="translate(0.000000, 1660.000000)">
                <g id="NFCicons" transform="translate(329.000000, 475.000000)" sketch:type="MSShapeGroup">
                    <g id="iDTag" transform="translate(342.000000, 0.000000)">
                        <g id="iDicon" transform="translate(0.000000, 7.524483)">
                            <path d="M28.1452747,28.5075695 L5.4003956,28.5075695 C2.43006593,28.5075695 0,26.121593 0,23.2073561 L0,5.42919015 C0,2.51495323 2.43006593,0.128976766 5.4003956,0.128976766 L28.1452747,0.128976766 C31.1133626,0.128976766 33.5434286,2.51495323 33.5434286,5.42919015 L33.5434286,23.2073561 C33.5434286,26.121593 31.1133626,28.5075695 28.1452747,28.5075695" id="Fill-7" fill="#C0A16C"></path>
                            <path d="M11.0447494,6.3735057 C11.0447494,5.5000028 10.336523,4.80120048 9.45123999,4.80120048 C8.56595699,4.80120048 7.85773059,5.5000028 7.85773059,6.3735057 C7.85773059,7.2470086 8.56595699,7.97076815 9.45123999,7.97076815 C10.336523,7.97076815 11.0447494,7.2470086 11.0447494,6.3735057 L11.0447494,6.3735057 Z M10.8676928,21.8469856 L10.8676928,11.5396514 C10.8676928,10.7909347 10.2353478,10.167004 9.45123999,10.167004 C8.66713219,10.167004 8.03478719,10.7909347 8.03478719,11.5396514 L8.03478719,21.8469856 C8.03478719,22.6206596 8.66713219,23.2445903 9.45123999,23.2445903 C10.2353478,23.2445903 10.8676928,22.6206596 10.8676928,21.8469856 L10.8676928,21.8469856 Z M27.4351318,16.356396 L27.4351318,11.6893948 C27.4351318,8.94409995 26.5498488,4.90102938 20.9093314,4.90102938 L16.0529218,4.90102938 C15.268814,4.90102938 14.6111752,5.54991725 14.6111752,6.32359125 L14.6111752,21.6722851 C14.6111752,22.4709163 15.268814,23.0948469 16.0529218,23.0948469 L20.9093314,23.0948469 C26.5498488,23.0948469 27.4351318,19.1016908 27.4351318,16.356396 L27.4351318,16.356396 Z M24.5516386,16.356396 C24.5516386,18.5526319 23.8939998,20.4244238 20.7322748,20.4244238 L17.4946684,20.4244238 L17.4946684,7.62136699 L20.7322748,7.62136699 C23.868706,7.62136699 24.5516386,9.49315892 24.5516386,11.714352 L24.5516386,16.356396 Z" id="iD" fill="#FFFFFF"></path>
                        </g>
                    </g>
                </g>
            </g>
        </g>
    </g>
</svg>