<?xml version="1.0" encoding="UTF-8" standalone="no"?>
<svg width="47px" height="40px" viewBox="0 0 47 40" version="1.1" xmlns="http://www.w3.org/2000/svg" xmlns:xlink="http://www.w3.org/1999/xlink" xmlns:sketch="http://www.bohemiancoding.com/sketch/ns">
    <!-- Generator: Sketch 3.3.2 (12043) - http://www.bohemiancoding.com/sketch -->
    <title>NFCicon</title>
    <desc>Created with Sketch.</desc>
    <defs></defs>
    <g id="Landing-PetBio-150714" stroke="none" stroke-width="1" fill="none" fill-rule="evenodd" sketch:type="MSPage">
        <g id="Desktop-HD" sketch:type="MSArtboardGroup" transform="translate(-329.000000, -2137.000000)" fill="#C0A16C">
            <g id="Block03" sketch:type="MSLayerGroup" transform="translate(0.000000, 1660.000000)">
                <g id="NFCicons" transform="translate(329.000000, 475.000000)" sketch:type="MSShapeGroup">
                    <g id="NFC">
                        <g id="NFCicon" transform="translate(0.000000, 2.519042)">
                            <path d="M41.2525714,33.5317853 C41.0198095,33.4154061 40.7256599,33.1826476 40.5977687,33.0156687 C40.4698776,32.8486898 40.3164082,32.529912 40.2575782,32.3022135 C40.1961905,32.077045 40.1757279,31.770917 40.2115374,31.621648 C40.2473469,31.472379 40.4647619,30.9107228 40.694966,30.3718364 C40.9277279,29.83548 41.316517,28.7754171 41.562068,28.0214821 C41.8101769,27.2650172 42.1222313,26.1214648 42.2577959,25.4813791 C42.3959184,24.8412933 42.5800816,23.7559306 42.6670476,23.0703052 C42.7693605,22.2834804 42.8281905,21.0994483 42.8281905,19.8774665 C42.8281905,18.6656046 42.7693605,17.4689226 42.6696054,16.7048677 C42.5826395,16.0318922 42.4240544,15.0451988 42.314068,14.5164323 C42.2066395,13.9876659 41.981551,13.074342 41.8152925,12.4848559 C41.6464762,11.8978998 41.2167619,10.6936279 40.8586667,9.81066376 C40.3752381,8.62157171 40.2064218,8.09027526 40.2115374,7.75884747 C40.2140952,7.4704294 40.2933878,7.18707129 40.4391837,6.95684283 C40.5619592,6.75950415 40.8151837,6.48120601 41.0044626,6.33952696 C41.244898,6.15736817 41.5006803,6.06881876 41.8741224,6.03845897 C42.1657143,6.01315914 42.5186939,6.02327907 42.6568163,6.05869883 C42.7949388,6.09158861 43.081415,6.2737474 43.2911565,6.46096614 C43.5674014,6.70890449 43.7976054,7.08334199 44.1250068,7.82462703 C44.3756735,8.38881326 44.7516735,9.34767686 44.9639728,9.9548728 C45.1762721,10.5645987 45.5036735,11.6676714 45.6929524,12.4064264 C45.8796735,13.1451815 46.1252245,14.2963238 46.2352109,14.9642393 C46.3477551,15.6346849 46.4833197,16.7048677 46.5395918,17.3474834 C46.5933061,17.9900991 46.6393469,19.1260615 46.6393469,19.8774665 C46.6393469,20.6238115 46.5933061,21.7623039 46.5395918,22.4049196 C46.4833197,23.0475353 46.3477551,24.1177182 46.2377687,24.7881637 C46.1252245,25.4560792 45.8643265,26.6603512 45.6597007,27.4623558 C45.452517,28.2643605 45.076517,29.4888723 44.8207347,30.1846176 C44.5675102,30.880363 44.1761633,31.8189867 43.9510748,32.2718537 C43.6748299,32.83098 43.4241633,33.1902376 43.1734966,33.3850463 C42.8819048,33.6102148 42.6823946,33.6810543 42.2398912,33.7088841 C41.8025034,33.7367139 41.5799728,33.6962342 41.2525714,33.5317853 L41.2525714,33.5317853 Z M35.0779864,30.9107228 C34.9091701,30.8601231 34.5715374,30.6045948 34.3234286,30.3440066 C33.970449,29.9695691 33.8604626,29.7722304 33.8041905,29.4028529 C33.7428027,29.0031155 33.7786122,28.8336067 34.0522993,28.1985809 C34.2287891,27.7937836 34.5638639,26.9133495 34.7991837,26.240374 C35.0345034,25.5699285 35.3388844,24.4744458 35.474449,23.8090602 C35.6100136,23.1436747 35.7711565,21.9722925 35.8325442,21.2057076 C35.9143946,20.1734745 35.9143946,19.4650793 35.8299864,18.4809158 C35.7711565,17.7522807 35.6100136,16.6163183 35.4770068,15.9610527 C35.344,15.3032571 35.0958912,14.3418635 34.9296327,13.823217 C34.7608163,13.3045704 34.4538776,12.4975058 34.2492517,12.026929 C34.0446259,11.5588821 33.8451156,11.0402356 33.8093061,10.8732567 C33.7709388,10.7062778 33.796517,10.37738 33.8630204,10.1395616 C33.9371973,9.87644333 34.1341497,9.56272542 34.3694694,9.32996698 C34.5817687,9.1174484 34.9142857,8.89480988 35.1061224,8.83409029 C35.2979592,8.77084071 35.6534966,8.74048091 35.8964898,8.76831073 C36.1625034,8.79614054 36.5026939,8.93022965 36.7456871,9.09973851 C37.0296054,9.29454721 37.2495782,9.57284535 37.4721088,10.0155924 C37.6485986,10.36726 37.9708844,11.121195 38.1882993,11.6929712 C38.4082721,12.2672774 38.7356735,13.3146904 38.9172789,14.0205556 C39.1014422,14.7264209 39.3290884,15.8092537 39.4288435,16.4240396 C39.566966,17.2867638 39.7460136,17.8433601 39.7434558,19.6826578 C39.740898,21.7142342 39.566966,22.501059 39.3751293,23.6142515 C39.2497959,24.3327667 39.0016871,25.4484893 38.8226395,26.093635 C38.6435918,26.7387807 38.3161905,27.7254741 38.0962177,28.2871303 C37.8736871,28.8487866 37.5693061,29.5495919 37.4209524,29.8405399 C37.2470204,30.1795577 37.0014694,30.4755657 36.7405714,30.6577245 C36.4566531,30.8550632 36.1855238,30.9512025 35.8581224,30.9714424 C35.5972245,30.9891523 35.2468027,30.9613225 35.0779864,30.9107228 L35.0779864,30.9107228 Z M28.402068,27.4218761 C28.2409252,27.3813964 28.0107211,27.2979069 27.8905034,27.2346574 C27.7728435,27.1714078 26.6883265,26.3668732 25.4835918,25.4459593 C24.2762993,24.5250455 22.4039728,23.095605 21.3245714,22.2708305 C20.2426122,21.443526 18.9969524,20.5352621 18.5570068,20.249374 C18.1145034,19.9634859 17.6822313,19.7307275 17.5978231,19.7307275 C17.4673741,19.7307275 17.4392381,19.8546967 17.4417959,20.4340628 C17.4417959,20.8236802 17.5517823,21.6636346 17.6873469,22.3062503 C17.8203537,22.946336 17.9303401,23.7736405 17.9303401,24.145548 C17.9303401,24.6338347 17.874068,24.9399627 17.7257143,25.2410307 C17.6131701,25.4737891 17.3906395,25.7520873 17.2294966,25.8659365 C17.0709116,25.9797857 16.7716463,26.093635 16.5670204,26.1214648 C16.3086803,26.1543546 16.0759184,26.1088149 15.7971156,25.9696658 C15.5797007,25.8583465 15.2190476,25.5648685 14.996517,25.3169302 C14.7765442,25.0664618 14.505415,24.6287748 14.3979864,24.3428867 C14.2905578,24.0544686 14.1012789,23.3713732 13.9810612,22.8198369 C13.7866667,21.9520526 13.6536599,21.5067756 13.6562177,19.647238 C13.6587755,17.7978204 13.7943401,17.403143 13.9861769,16.5201789 C14.1063946,15.9585227 14.3186939,15.2602474 14.4517007,14.9642393 C14.5872653,14.6707613 14.794449,14.3266836 14.9146667,14.2027144 C15.0323265,14.0762153 15.2497415,13.9117664 15.3955374,13.8383969 C15.5413333,13.7624974 15.7894422,13.7017778 15.9454694,13.7017778 C16.1040544,13.7017778 16.4007619,13.813097 16.6053878,13.9497161 C16.8100136,14.0888652 18.1528707,15.1059184 19.5929252,16.216581 C21.0304218,17.3247136 23.2710748,19.0425721 24.5678912,20.0343255 C25.8672653,21.0260788 27.0694422,21.9368727 27.2408163,22.0608419 C27.4121905,22.1848111 27.6168163,22.2607106 27.693551,22.2303508 C27.780517,22.197461 27.8802721,21.9292828 27.9416599,21.5624353 C28.0004898,21.2234175 28.0721088,20.697181 28.1028027,20.396113 C28.1309388,20.0925151 28.1104762,19.4018297 28.0542041,18.8578833 C27.997932,18.3164669 27.8444626,17.4689226 27.7165714,16.9781059 C27.5861224,16.4847592 27.3431293,15.756124 27.1743129,15.3538567 C27.0080544,14.9541194 26.8213333,14.3393335 26.7625034,13.9927258 C26.6832109,13.519619 26.6857687,13.2539708 26.7727347,12.9402529 C26.8366803,12.7074944 27.0336327,12.3634167 27.2101224,12.173668 C27.4786939,11.8852499 27.6142585,11.8194703 28.0388571,11.7789906 C28.3381224,11.7511608 28.6706395,11.7815206 28.8445714,11.8523601 C29.0082721,11.9206697 29.3638095,12.2141477 29.632381,12.5025658 C29.9009524,12.7935138 30.2718367,13.3475801 30.456,13.7346675 C30.6427211,14.119225 30.947102,14.8933998 31.136381,15.4525261 C31.3256599,16.0141823 31.5609796,16.8440168 31.6607347,17.2994137 C31.801415,17.9445594 31.9472109,18.5416354 31.9472109,20.0216755 C31.9472109,21.5017157 31.801415,22.0987917 31.6607347,22.7439374 C31.5609796,23.1993343 31.3691429,23.9153195 31.2361361,24.3378267 C31.1005714,24.7603339 30.8371156,25.4383694 30.6503946,25.8456966 C30.4636735,26.2504939 30.2130068,26.688181 30.0927891,26.8146802 C29.9751293,26.9386493 29.7653878,27.1233381 29.6272653,27.2194775 C29.4917007,27.3156168 29.2256871,27.4193461 29.038966,27.4471759 C28.8522449,27.4724758 28.5657687,27.4623558 28.402068,27.4218761 L28.402068,27.4218761 Z" id="Fill-5"></path>
                            <path d="M21.3808435,28.6843377 L21.3808435,30.6045948 C21.3834014,30.8677131 21.2862041,31.0979415 21.0892517,31.2902203 C20.8922993,31.482499 20.6620952,31.5786383 20.3960816,31.5786383 L4.6117551,31.5786383 C4.34318367,31.5811683 4.11297959,31.485029 3.91858503,31.2902203 C3.72419048,31.0954116 3.62443537,30.8677131 3.62443537,30.6045948 L3.62443537,9.13768826 C3.62443537,8.87204004 3.72163265,8.64434156 3.91858503,8.45206284 C4.11297959,8.25978413 4.3457415,8.16111479 4.6117551,8.16111479 L20.3960816,8.16111479 C20.6646531,8.16111479 20.8948571,8.25725414 21.0892517,8.45206284 C21.2836463,8.64434156 21.3808435,8.87457002 21.3808435,9.13768826 L21.3808435,10.6506182 L24.3402449,10.6506182 L24.3402449,4.25988085 C24.3402449,3.20234792 23.9514558,2.28902402 23.1687619,1.51484919 C22.3886259,0.743204345 21.4626939,0.356116931 20.3960816,0.356116931 L4.6117551,0.356116931 C3.54514286,0.356116931 2.61921088,0.743204345 1.83907483,1.51484919 C1.05638095,2.28902402 0.665034014,3.20234792 0.665034014,4.25988085 L0.665034014,35.4824023 C0.665034014,36.5374052 1.05638095,37.4532591 1.83907483,38.2249039 C2.61921088,38.9990788 3.54514286,39.3861662 4.6117551,39.3861662 L20.3960816,39.3861662 C21.4626939,39.3861662 22.3886259,38.9990788 23.1687619,38.2249039 C23.9514558,37.4532591 24.3402449,36.5374052 24.3402449,35.4824023 L24.3402449,28.6843377 L21.3808435,28.6843377 L21.3808435,28.6843377 Z M10.036898,4.25988085 L14.968381,4.25988085 C15.2983401,4.25988085 15.4620408,4.42179977 15.4620408,4.74816759 C15.4620408,5.07200542 15.2983401,5.23645433 14.968381,5.23645433 L10.036898,5.23645433 C9.7094966,5.23645433 9.5432381,5.07200542 9.5432381,4.74816759 C9.5432381,4.42179977 9.7094966,4.25988085 10.036898,4.25988085 L10.036898,4.25988085 Z M14.244517,37.2053207 C13.7636463,37.6834875 13.1830204,37.921306 12.5026395,37.921306 C11.8248163,37.921306 11.2441905,37.6834875 10.7607619,37.2053207 C10.2798912,36.7271539 10.036898,36.1528478 10.036898,35.4824023 C10.036898,34.8119567 10.2798912,34.2351206 10.7607619,33.7594838 C11.2441905,33.281317 11.8248163,33.0434985 12.5026395,33.0434985 C13.1830204,33.0434985 13.7636463,33.281317 14.244517,33.7594838 C14.7279456,34.2351206 14.968381,34.8119567 14.968381,35.4824023 C14.968381,36.1528478 14.7279456,36.7271539 14.244517,37.2053207 L14.244517,37.2053207 Z" id="Fill-6"></path>
                        </g>
                    </g>
                </g>
            </g>
        </g>
    </g>
</svg>