<?xml version="1.0" encoding="UTF-8" standalone="no"?>
<svg width="36px" height="36px" viewBox="0 0 36 36" version="1.1" xmlns="http://www.w3.org/2000/svg" xmlns:xlink="http://www.w3.org/1999/xlink" xmlns:sketch="http://www.bohemiancoding.com/sketch/ns">
    <!-- Generator: Sketch 3.3.2 (12043) - http://www.bohemiancoding.com/sketch -->
    <title>QRicon</title>
    <desc>Created with Sketch.</desc>
    <defs></defs>
    <g id="Landing-PetBio-150714" stroke="none" stroke-width="1" fill="none" fill-rule="evenodd" sketch:type="MSPage">
        <g id="Desktop-HD" sketch:type="MSArtboardGroup" transform="translate(-531.000000, -2140.000000)" fill="#C0A16C">
            <g id="Block03" sketch:type="MSLayerGroup" transform="translate(0.000000, 1660.000000)">
                <g id="NFCicons" transform="translate(329.000000, 475.000000)" sketch:type="MSShapeGroup">
                    <g id="QR" transform="translate(202.000000, 0.000000)">
                        <path d="M32.4178834,40.0740396 L35.6016067,40.0740396 L35.6016067,36.9024753 L32.4178834,36.9024753 L32.4178834,40.0740396 Z M26.0042958,14.5705265 L29.1880191,14.5705265 L29.1880191,11.3989622 L26.0042958,11.3989622 L26.0042958,14.5705265 Z M26.0042958,40.0740396 L29.1880191,40.0740396 L29.1880191,36.9024753 L26.0042958,36.9024753 L26.0042958,40.0740396 Z M22.8205724,8.18143334 L32.4155763,8.18143334 L32.4155763,17.7397924 L22.8205724,17.7397924 L22.8205724,8.18143334 Z M19.6368491,20.9113567 L35.6016067,20.9113567 L35.6016067,5.00757089 L19.6368491,5.00757089 L19.6368491,20.9113567 Z M22.8205724,40.0740396 L22.8205724,30.5156805 L26.0042958,30.5156805 L26.0042958,33.6872447 L35.5992997,33.6872447 L35.5992997,24.1288856 L32.4178834,24.1288856 L32.4178834,27.3004498 L29.1880191,27.3004498 L29.1880191,24.1288856 L19.6368491,24.1288856 L19.6368491,40.0740396 L22.8205724,40.0740396 L22.8205724,40.0740396 Z M6.81198089,14.5705265 L9.99570424,14.5705265 L9.99570424,11.3989622 L6.81198089,11.3989622 L6.81198089,14.5705265 Z M6.81198089,33.6872447 L9.99570424,33.6872447 L9.99570424,30.5156805 L6.81198089,30.5156805 L6.81198089,33.6872447 Z M3.58442367,8.18143334 L13.2255685,8.18143334 L13.2255685,17.7397924 L3.58442367,17.7397924 L3.58442367,8.18143334 Z M3.58442367,27.3004498 L13.2255685,27.3004498 L13.2255685,36.8588089 L3.58442367,36.8588089 L3.58442367,27.3004498 Z M0.398393275,20.9113567 L16.4069848,20.9113567 L16.4069848,5.00757089 L0.398393275,5.00757089 L0.398393275,20.9113567 Z M0.398393275,40.0740396 L16.4069848,40.0740396 L16.4069848,24.1265873 L0.398393275,24.1265873 L0.398393275,40.0740396 Z" id="QRicon"></path>
                    </g>
                </g>
            </g>
        </g>
    </g>
</svg>