<?xml version="1.0" encoding="UTF-8" standalone="no"?>
<svg width="44px" height="51px" viewBox="0 0 44 51" version="1.1" xmlns="http://www.w3.org/2000/svg" xmlns:xlink="http://www.w3.org/1999/xlink" xmlns:sketch="http://www.bohemiancoding.com/sketch/ns">
    <!-- Generator: Sketch 3.3.2 (12043) - http://www.bohemiancoding.com/sketch -->
    <title>VetIcon</title>
    <desc>Created with Sketch.</desc>
    <defs></defs>
    <g id="Landing-PetBio-150714" stroke="none" stroke-width="1" fill="none" fill-rule="evenodd" sketch:type="MSPage">
        <g id="Desktop-HD" sketch:type="MSArtboardGroup" transform="translate(-945.000000, -2590.000000)" fill="#259FC9">
            <g id="Block04" sketch:type="MSLayerGroup" transform="translate(301.000000, 2590.000000)">
                <g id="PidelaVet" transform="translate(493.042296, 0.000000)" sketch:type="MSShapeGroup">
                    <g id="VetIcon" transform="translate(150.543807, 0.000000)">
                        <path d="M4.04654854,45.2727586 L4.54013391,45.4884828 C6.5057855,46.3291034 8.56586715,46.7218621 10.6201555,46.7218621 C11.5679321,46.7218621 12.5099155,46.6286552 13.4466849,46.4668621 C16.2900147,49.1341034 19.440387,50.8171034 22.3457047,50.8681034 C25.2226353,50.8200345 28.3330342,49.166931 31.151453,46.5501034 C32.1027056,46.7253793 33.0614893,46.8262069 34.030701,46.8303103 C36.1104797,46.8303103 38.2053209,46.395931 40.2161599,45.4662069 L40.6801996,45.2545862 L40.9397375,44.8043793 C42.9934466,41.2361379 43.9058843,37.5377586 43.9006704,33.9888621 C43.8566416,27.8934828 41.2589459,22.2834828 37.3745681,18.1214138 L38.6056348,12.6057931 C38.6850024,12.2329655 38.7272932,11.8718621 38.7272932,11.4914138 C38.6653054,8.61841379 36.7280407,5.94003448 33.8464755,3.77341379 C30.9318886,1.63024138 26.909052,0.0715172414 22.2773442,0.0674137931 C17.6456365,0.0715172414 13.6187446,1.63024138 10.7041578,3.77341379 C7.81853719,5.94003448 5.88127256,8.61841379 5.82334,11.4914138 C5.82334,11.8718621 5.86621009,12.2499655 5.94731567,12.611069 L7.20734874,18.2544828 C3.39249,22.4042414 0.85272679,27.9603103 0.809277374,33.9888621 C0.805222095,37.5377586 1.71997714,41.2361379 3.78005879,44.8084828 L4.04654854,45.2727586 L4.04654854,45.2727586 Z M12.6026076,6.40841379 C14.9743664,4.65858621 18.3721107,3.32496552 22.2773442,3.32496552 C26.1791018,3.32496552 29.5739495,4.65858621 31.9480256,6.40841379 C34.3504887,8.13831034 35.566493,10.3565172 35.5045052,11.4914138 C35.5045052,11.6297586 35.4929187,11.7727931 35.4616351,11.9205172 L34.6395721,15.5925172 L33.5011974,20.6936897 C31.3119262,20.0054828 27.2786617,19.008931 22.2773442,19.0065862 C17.2771854,19.008931 13.2427623,20.0054828 11.0534911,20.6936897 L9.08494284,11.8876897 C9.05655589,11.761069 9.04381073,11.6297586 9.04381073,11.4914138 C8.98298155,10.3565172 10.2001445,8.13831034 12.6026076,6.40841379 L12.6026076,6.40841379 Z M5.91255614,33.1048621 C9.31493509,32.6968621 11.5430211,30.585931 12.9959696,28.4544828 C14.432697,26.3429655 14.9784217,24.3551379 14.9784217,24.3522069 L15.5363122,22.3245172 L15.9980346,22.8444828 L16.9243762,23.8920345 C16.9307488,23.8832414 17.1427819,24.1446897 17.7435425,24.6218621 C18.3471997,25.1019655 19.2891831,25.7532414 20.6256871,26.4144828 C23.2957986,27.7328621 27.526613,29.0852414 33.7323483,29.0852414 C35.0647971,29.0852414 36.4876206,29.021931 38.0176194,28.885931 C38.6421324,28.8314138 39.1936503,29.2956897 39.2492655,29.9311379 C39.2996669,30.5613103 38.840841,31.1211379 38.2169074,31.1762414 C37.1509484,31.2729655 36.141184,31.3239655 35.1592272,31.3526897 L35.1592272,31.3579655 C35.0781216,34.0908621 34.2635899,36.7006552 33.0047154,39.0026897 C32.989653,39.0296552 32.9711146,39.0560345 32.9572107,39.0847586 C32.7208459,39.5126897 32.4723153,39.9324138 32.2087221,40.3374828 C32.121244,40.4723103 32.0239173,40.5977586 31.9335425,40.7296552 C31.7330959,41.0227586 31.5332285,41.3182069 31.3182988,41.5966552 C31.005463,42.0075862 30.6810407,42.4026897 30.3450318,42.7790345 C29.4314355,43.8224828 28.4349955,44.7041379 27.4414522,45.4310345 C25.4885458,46.8613793 23.5593917,47.6486552 22.3457047,47.6093793 C21.1204311,47.6515862 19.168104,46.8473103 17.1995558,45.3946897 C16.2239716,44.6754138 15.2431734,43.8054828 14.3446395,42.7790345 C13.8771238,42.2520345 13.4339397,41.6834138 13.0087148,41.0936897 C12.9455683,41.0034138 12.8795252,40.9166552 12.8175374,40.8263793 C12.4206994,40.2554138 12.053407,39.6539655 11.7121842,39.0314138 C11.6501964,38.915931 11.5870499,38.8022069 11.5273794,38.6843793 C11.1954258,38.048931 10.8930179,37.3941379 10.63348,36.7164828 C10.5998792,36.6250345 10.5697542,36.5335862 10.5378913,36.4409655 C10.2766155,35.7240345 10.0466233,34.9918621 9.88383278,34.2397586 C9.88383278,34.2374138 9.88093615,34.2356552 9.88093615,34.2344828 C8.79412142,34.7784828 7.58217237,35.2075862 6.17846656,35.3945862 L6.18252184,35.3945862 C6.1361758,35.3998621 6.09214706,35.4022069 6.04580101,35.4022069 C5.47458602,35.4022069 4.98447661,34.9707586 4.91495754,34.3863103 C4.8413832,33.7561379 5.28456724,33.1804828 5.91255614,33.1048621 L5.91255614,33.1048621 Z" id="Fill-3"></path>
                        <path d="M16.7836001,35.4022069 C18.1444358,35.4022069 19.2503683,34.2843103 19.2503683,32.9061379 C19.2503683,31.5262069 18.1444358,30.4083103 16.7836001,30.4083103 C15.4198677,30.4083103 14.3150939,31.5262069 14.3150939,32.9061379 C14.3150939,34.2843103 15.4198677,35.4022069 16.7836001,35.4022069" id="Fill-4"></path>
                        <path d="M20.536471,17.1066897 L24.0906332,17.1066897 L24.0958471,13.3772414 L27.777461,13.3772414 L27.777461,9.77851724 L24.0958471,9.77851724 L24.0958471,6.04906897 L20.536471,6.04906897 L20.536471,9.77851724 L16.8508018,9.77851724 L16.8508018,13.3772414 L20.536471,13.3772414 L20.536471,17.1066897" id="Fill-5"></path>
                        <path d="M27.852194,35.4022069 C29.2130297,35.4022069 30.3183829,34.2843103 30.3183829,32.9061379 C30.3183829,31.5262069 29.2130297,30.4083103 27.852194,30.4083103 C26.489041,30.4083103 25.3842672,31.5262069 25.3842672,32.9061379 C25.3842672,34.2843103 26.489041,35.4022069 27.852194,35.4022069" id="Fill-6"></path>
                    </g>
                </g>
            </g>
        </g>
    </g>
</svg>